<svg id="visual" viewBox="0 0 960 540" width="960" height="540" xmlns="http://www.w3.org/2000/svg" xmlns:xlink="http://www.w3.org/1999/xlink" version="1.1"><g stroke-width="1" stroke-linejoin="bevel"><path d="M481 257L539 263L476 235Z" fill="#121212" stroke="#121212"></path><path d="M527 278L544 266L539 263Z" fill="#111111" stroke="#111111"></path><path d="M481 257L527 278L539 263Z" fill="#121212" stroke="#121212"></path><path d="M481 257L515 287L527 278Z" fill="#101010" stroke="#101010"></path><path d="M527 278L557 294L544 266Z" fill="#131313" stroke="#131313"></path><path d="M515 287L521 287L527 278Z" fill="#141414" stroke="#141414"></path><path d="M496 185L476 235L539 263Z" fill="#101010" stroke="#101010"></path><path d="M496 185L462 215L476 235Z" fill="#111111" stroke="#111111"></path><path d="M476 235L390 296L481 257Z" fill="#141414" stroke="#141414"></path><path d="M542 168L496 185L539 263Z" fill="#101010" stroke="#101010"></path><path d="M521 287L557 294L527 278Z" fill="#121212" stroke="#121212"></path><path d="M524 343L557 294L521 287Z" fill="#141414" stroke="#141414"></path><path d="M584 208L539 263L544 266Z" fill="#131313" stroke="#131313"></path><path d="M584 208L542 168L539 263Z" fill="#111111" stroke="#111111"></path><path d="M542 168L541 166L496 185Z" fill="#121212" stroke="#121212"></path><path d="M630 224L584 208L637 247Z" fill="#141414" stroke="#141414"></path><path d="M542 168L571 182L541 166Z" fill="#141414" stroke="#141414"></path><path d="M584 208L571 182L542 168Z" fill="#121212" stroke="#121212"></path><path d="M390 296L475 319L481 257Z" fill="#121212" stroke="#121212"></path><path d="M481 257L475 319L515 287Z" fill="#111111" stroke="#111111"></path><path d="M515 287L524 343L521 287Z" fill="#111111" stroke="#111111"></path><path d="M571 182L532 149L541 166Z" fill="#121212" stroke="#121212"></path><path d="M541 166L532 149L496 185Z" fill="#111111" stroke="#111111"></path><path d="M391 175L397 200L462 215Z" fill="#131313" stroke="#131313"></path><path d="M475 319L524 343L515 287Z" fill="#131313" stroke="#131313"></path><path d="M637 247L544 266L557 294Z" fill="#141414" stroke="#141414"></path><path d="M637 247L584 208L544 266Z" fill="#111111" stroke="#111111"></path><path d="M584 208L670 167L571 182Z" fill="#121212" stroke="#121212"></path><path d="M513 83L512 96L565 77Z" fill="#121212" stroke="#121212"></path><path d="M391 175L462 215L439 109Z" fill="#121212" stroke="#121212"></path><path d="M462 215L390 296L476 235Z" fill="#121212" stroke="#121212"></path><path d="M400 324L486 357L475 319Z" fill="#101010" stroke="#101010"></path><path d="M475 319L486 357L524 343Z" fill="#121212" stroke="#121212"></path><path d="M657 290L637 247L557 294Z" fill="#111111" stroke="#111111"></path><path d="M397 200L390 296L462 215Z" fill="#121212" stroke="#121212"></path><path d="M439 109L462 215L496 185Z" fill="#141414" stroke="#141414"></path><path d="M397 200L378 204L390 296Z" fill="#111111" stroke="#111111"></path><path d="M391 175L378 204L397 200Z" fill="#141414" stroke="#141414"></path><path d="M486 357L535 377L524 343Z" fill="#131313" stroke="#131313"></path><path d="M524 343L564 372L557 294Z" fill="#121212" stroke="#121212"></path><path d="M390 296L400 324L475 319Z" fill="#131313" stroke="#131313"></path><path d="M486 357L486 414L535 377Z" fill="#131313" stroke="#131313"></path><path d="M512 96L532 149L565 77Z" fill="#131313" stroke="#131313"></path><path d="M532 149L512 96L496 185Z" fill="#101010" stroke="#101010"></path><path d="M535 377L564 372L524 343Z" fill="#111111" stroke="#111111"></path><path d="M512 96L439 109L496 185Z" fill="#121212" stroke="#121212"></path><path d="M624 380L657 290L557 294Z" fill="#141414" stroke="#141414"></path><path d="M697 196L670 167L630 224Z" fill="#101010" stroke="#101010"></path><path d="M565 77L532 149L571 182Z" fill="#101010" stroke="#101010"></path><path d="M512 96L513 83L439 109Z" fill="#141414" stroke="#141414"></path><path d="M439 109L395 129L391 175Z" fill="#141414" stroke="#141414"></path><path d="M391 175L335 162L378 204Z" fill="#121212" stroke="#121212"></path><path d="M308 231L372 317L390 296Z" fill="#141414" stroke="#141414"></path><path d="M390 296L372 317L400 324Z" fill="#131313" stroke="#131313"></path><path d="M445 436L486 414L486 357Z" fill="#101010" stroke="#101010"></path><path d="M585 411L596 384L564 372Z" fill="#121212" stroke="#121212"></path><path d="M564 372L596 384L557 294Z" fill="#111111" stroke="#111111"></path><path d="M635 80L565 77L571 182Z" fill="#101010" stroke="#101010"></path><path d="M513 83L431 88L439 109Z" fill="#121212" stroke="#121212"></path><path d="M439 109L388 117L395 129Z" fill="#141414" stroke="#141414"></path><path d="M387 83L431 88L383 44Z" fill="#121212" stroke="#121212"></path><path d="M697 196L630 224L637 247Z" fill="#141414" stroke="#141414"></path><path d="M630 224L670 167L584 208Z" fill="#111111" stroke="#111111"></path><path d="M431 88L388 117L439 109Z" fill="#111111" stroke="#111111"></path><path d="M341 138L335 162L391 175Z" fill="#141414" stroke="#141414"></path><path d="M445 436L486 357L400 324Z" fill="#141414" stroke="#141414"></path><path d="M555 424L575 417L564 372Z" fill="#131313" stroke="#131313"></path><path d="M638 410L624 380L596 384Z" fill="#121212" stroke="#121212"></path><path d="M596 384L624 380L557 294Z" fill="#111111" stroke="#111111"></path><path d="M486 414L539 423L535 377Z" fill="#111111" stroke="#111111"></path><path d="M575 417L585 411L564 372Z" fill="#141414" stroke="#141414"></path><path d="M555 424L564 372L535 377Z" fill="#141414" stroke="#141414"></path><path d="M657 290L697 196L637 247Z" fill="#141414" stroke="#141414"></path><path d="M740 306L697 196L657 290Z" fill="#141414" stroke="#141414"></path><path d="M539 423L555 424L535 377Z" fill="#111111" stroke="#111111"></path><path d="M533 476L552 426L539 423Z" fill="#131313" stroke="#131313"></path><path d="M539 423L552 426L555 424Z" fill="#121212" stroke="#121212"></path><path d="M555 424L568 473L575 417Z" fill="#121212" stroke="#121212"></path><path d="M697 196L694 175L670 167Z" fill="#141414" stroke="#141414"></path><path d="M670 167L635 80L571 182Z" fill="#121212" stroke="#121212"></path><path d="M341 138L391 175L395 129Z" fill="#101010" stroke="#101010"></path><path d="M378 204L308 231L390 296Z" fill="#111111" stroke="#111111"></path><path d="M388 117L341 138L395 129Z" fill="#111111" stroke="#111111"></path><path d="M327 103L341 138L388 117Z" fill="#141414" stroke="#141414"></path><path d="M425 26L431 88L513 83Z" fill="#141414" stroke="#141414"></path><path d="M431 88L387 83L388 117Z" fill="#121212" stroke="#121212"></path><path d="M681 112L635 80L670 167Z" fill="#131313" stroke="#131313"></path><path d="M305 156L308 231L335 162Z" fill="#141414" stroke="#141414"></path><path d="M335 162L308 231L378 204Z" fill="#121212" stroke="#121212"></path><path d="M717 372L699 327L624 380Z" fill="#131313" stroke="#131313"></path><path d="M624 380L699 327L657 290Z" fill="#101010" stroke="#101010"></path><path d="M350 403L445 436L400 324Z" fill="#131313" stroke="#131313"></path><path d="M486 414L533 476L539 423Z" fill="#131313" stroke="#131313"></path><path d="M350 403L400 324L372 317Z" fill="#141414" stroke="#141414"></path><path d="M694 175L696 137L670 167Z" fill="#101010" stroke="#101010"></path><path d="M712 118L696 137L760 147Z" fill="#131313" stroke="#131313"></path><path d="M696 137L681 112L670 167Z" fill="#111111" stroke="#111111"></path><path d="M445 436L456 442L486 414Z" fill="#141414" stroke="#141414"></path><path d="M647 419L638 410L585 411Z" fill="#131313" stroke="#131313"></path><path d="M585 411L638 410L596 384Z" fill="#121212" stroke="#121212"></path><path d="M647 419L585 411L637 485Z" fill="#121212" stroke="#121212"></path><path d="M635 80L621 45L565 77Z" fill="#121212" stroke="#121212"></path><path d="M569 0L495 0L513 83Z" fill="#111111" stroke="#111111"></path><path d="M690 53L621 45L635 80Z" fill="#131313" stroke="#131313"></path><path d="M327 103L305 156L341 138Z" fill="#121212" stroke="#121212"></path><path d="M341 138L305 156L335 162Z" fill="#121212" stroke="#121212"></path><path d="M621 45L600 33L565 77Z" fill="#131313" stroke="#131313"></path><path d="M445 436L466 458L456 442Z" fill="#121212" stroke="#121212"></path><path d="M456 442L466 458L486 414Z" fill="#141414" stroke="#141414"></path><path d="M568 473L585 411L575 417Z" fill="#121212" stroke="#121212"></path><path d="M568 473L555 424L552 426Z" fill="#111111" stroke="#111111"></path><path d="M638 410L717 372L624 380Z" fill="#101010" stroke="#101010"></path><path d="M305 156L285 229L308 231Z" fill="#131313" stroke="#131313"></path><path d="M308 231L284 262L372 317Z" fill="#111111" stroke="#111111"></path><path d="M387 83L327 103L388 117Z" fill="#141414" stroke="#141414"></path><path d="M285 229L284 262L308 231Z" fill="#101010" stroke="#101010"></path><path d="M495 0L425 26L513 83Z" fill="#131313" stroke="#131313"></path><path d="M387 83L324 95L327 103Z" fill="#131313" stroke="#131313"></path><path d="M334 410L350 403L318 396Z" fill="#111111" stroke="#111111"></path><path d="M445 436L431 529L466 458Z" fill="#121212" stroke="#121212"></path><path d="M696 137L712 118L681 112Z" fill="#141414" stroke="#141414"></path><path d="M681 112L690 53L635 80Z" fill="#121212" stroke="#121212"></path><path d="M760 147L696 137L694 175Z" fill="#121212" stroke="#121212"></path><path d="M759 182L694 175L697 196Z" fill="#131313" stroke="#131313"></path><path d="M425 26L383 44L431 88Z" fill="#141414" stroke="#141414"></path><path d="M335 50L324 95L387 83Z" fill="#101010" stroke="#101010"></path><path d="M282 116L272 157L305 156Z" fill="#111111" stroke="#111111"></path><path d="M732 358L740 306L699 327Z" fill="#121212" stroke="#121212"></path><path d="M699 327L740 306L657 290Z" fill="#131313" stroke="#131313"></path><path d="M466 458L533 476L486 414Z" fill="#121212" stroke="#121212"></path><path d="M569 0L513 83L565 77Z" fill="#131313" stroke="#131313"></path><path d="M533 476L568 473L552 426Z" fill="#101010" stroke="#101010"></path><path d="M334 410L347 418L350 403Z" fill="#121212" stroke="#121212"></path><path d="M350 403L347 418L445 436Z" fill="#141414" stroke="#141414"></path><path d="M715 412L717 372L647 419Z" fill="#141414" stroke="#141414"></path><path d="M647 419L717 372L638 410Z" fill="#101010" stroke="#101010"></path><path d="M572 0L569 0L600 33Z" fill="#111111" stroke="#111111"></path><path d="M600 33L569 0L565 77Z" fill="#101010" stroke="#101010"></path><path d="M572 0L600 33L654 0Z" fill="#101010" stroke="#101010"></path><path d="M654 0L600 33L621 45Z" fill="#111111" stroke="#111111"></path><path d="M318 396L350 403L372 317Z" fill="#131313" stroke="#131313"></path><path d="M287 378L318 396L372 317Z" fill="#111111" stroke="#111111"></path><path d="M717 372L732 358L699 327Z" fill="#141414" stroke="#141414"></path><path d="M767 234L759 182L697 196Z" fill="#141414" stroke="#141414"></path><path d="M246 240L262 279L284 262Z" fill="#121212" stroke="#121212"></path><path d="M284 262L268 356L372 317Z" fill="#121212" stroke="#121212"></path><path d="M246 240L284 262L285 229Z" fill="#121212" stroke="#121212"></path><path d="M272 157L285 229L305 156Z" fill="#121212" stroke="#121212"></path><path d="M282 116L305 156L327 103Z" fill="#141414" stroke="#141414"></path><path d="M800 257L767 234L740 306Z" fill="#101010" stroke="#101010"></path><path d="M740 306L767 234L697 196Z" fill="#111111" stroke="#111111"></path><path d="M315 453L348 434L334 410Z" fill="#101010" stroke="#101010"></path><path d="M334 410L348 434L347 418Z" fill="#111111" stroke="#111111"></path><path d="M347 418L348 434L445 436Z" fill="#101010" stroke="#101010"></path><path d="M614 509L606 503L610 540Z" fill="#131313" stroke="#131313"></path><path d="M731 96L681 112L712 118Z" fill="#111111" stroke="#111111"></path><path d="M731 96L690 53L681 112Z" fill="#131313" stroke="#131313"></path><path d="M339 34L335 50L383 44Z" fill="#111111" stroke="#111111"></path><path d="M383 44L335 50L387 83Z" fill="#101010" stroke="#101010"></path><path d="M285 93L282 116L327 103Z" fill="#121212" stroke="#121212"></path><path d="M400 0L383 44L425 26Z" fill="#121212" stroke="#121212"></path><path d="M285 93L327 103L324 95Z" fill="#121212" stroke="#121212"></path><path d="M761 120L731 96L712 118Z" fill="#131313" stroke="#131313"></path><path d="M767 234L769 181L759 182Z" fill="#131313" stroke="#131313"></path><path d="M759 182L760 147L694 175Z" fill="#101010" stroke="#101010"></path><path d="M452 -25L400 0L425 26Z" fill="#131313" stroke="#131313"></path><path d="M769 181L760 147L759 182Z" fill="#121212" stroke="#121212"></path><path d="M268 356L287 378L372 317Z" fill="#141414" stroke="#141414"></path><path d="M318 396L315 453L334 410Z" fill="#111111" stroke="#111111"></path><path d="M272 157L246 240L285 229Z" fill="#101010" stroke="#101010"></path><path d="M262 279L268 356L284 262Z" fill="#121212" stroke="#121212"></path><path d="M184 264L246 240L162 187Z" fill="#121212" stroke="#121212"></path><path d="M702 484L715 412L647 419Z" fill="#131313" stroke="#131313"></path><path d="M717 372L751 375L732 358Z" fill="#121212" stroke="#121212"></path><path d="M354 0L339 34L383 44Z" fill="#121212" stroke="#121212"></path><path d="M311 45L285 93L324 95Z" fill="#131313" stroke="#131313"></path><path d="M311 45L324 95L335 50Z" fill="#121212" stroke="#121212"></path><path d="M282 116L252 113L272 157Z" fill="#101010" stroke="#101010"></path><path d="M457 -48L452 -25L498 -55Z" fill="#141414" stroke="#141414"></path><path d="M495 0L452 -25L425 26Z" fill="#121212" stroke="#121212"></path><path d="M452 -25L495 0L498 -55Z" fill="#121212" stroke="#121212"></path><path d="M241 318L268 356L262 279Z" fill="#121212" stroke="#121212"></path><path d="M738 396L751 375L717 372Z" fill="#121212" stroke="#121212"></path><path d="M732 358L751 375L740 306Z" fill="#111111" stroke="#111111"></path><path d="M715 412L738 396L717 372Z" fill="#111111" stroke="#111111"></path><path d="M774 92L849 159L797 74Z" fill="#101010" stroke="#101010"></path><path d="M760 147L761 120L712 118Z" fill="#121212" stroke="#121212"></path><path d="M731 96L721 0L690 53Z" fill="#121212" stroke="#121212"></path><path d="M214 367L267 364L268 356Z" fill="#141414" stroke="#141414"></path><path d="M268 356L267 364L287 378Z" fill="#141414" stroke="#141414"></path><path d="M287 378L270 396L318 396Z" fill="#101010" stroke="#101010"></path><path d="M606 503L637 485L568 473Z" fill="#111111" stroke="#111111"></path><path d="M568 473L637 485L585 411Z" fill="#101010" stroke="#101010"></path><path d="M768 452L756 395L738 396Z" fill="#111111" stroke="#111111"></path><path d="M690 53L654 0L621 45Z" fill="#121212" stroke="#121212"></path><path d="M498 -55L495 0L569 0Z" fill="#131313" stroke="#131313"></path><path d="M703 0L654 0L690 53Z" fill="#111111" stroke="#111111"></path><path d="M299 -8L311 45L339 34Z" fill="#121212" stroke="#121212"></path><path d="M339 34L311 45L335 50Z" fill="#131313" stroke="#131313"></path><path d="M558 528L606 503L568 473Z" fill="#141414" stroke="#141414"></path><path d="M568 473L533 476L558 528Z" fill="#111111" stroke="#111111"></path><path d="M224 285L241 318L262 279Z" fill="#121212" stroke="#121212"></path><path d="M457 -48L354 0L400 0Z" fill="#101010" stroke="#101010"></path><path d="M400 0L354 0L383 44Z" fill="#141414" stroke="#141414"></path><path d="M808 292L800 257L740 306Z" fill="#141414" stroke="#141414"></path><path d="M767 234L800 257L769 181Z" fill="#141414" stroke="#141414"></path><path d="M774 92L761 120L849 159Z" fill="#141414" stroke="#141414"></path><path d="M263 6L252 113L285 93Z" fill="#121212" stroke="#121212"></path><path d="M285 93L252 113L282 116Z" fill="#131313" stroke="#131313"></path><path d="M246 240L224 285L262 279Z" fill="#141414" stroke="#141414"></path><path d="M214 367L270 396L267 364Z" fill="#121212" stroke="#121212"></path><path d="M267 364L270 396L287 378Z" fill="#141414" stroke="#141414"></path><path d="M558 528L533 476L511 540Z" fill="#121212" stroke="#121212"></path><path d="M606 503L614 509L637 485Z" fill="#121212" stroke="#121212"></path><path d="M768 452L738 396L715 412Z" fill="#121212" stroke="#121212"></path><path d="M738 396L756 395L751 375Z" fill="#101010" stroke="#101010"></path><path d="M814 305L808 292L740 306Z" fill="#101010" stroke="#101010"></path><path d="M702 484L647 419L637 485Z" fill="#131313" stroke="#131313"></path><path d="M270 396L315 453L318 396Z" fill="#141414" stroke="#141414"></path><path d="M350 495L431 529L445 436Z" fill="#111111" stroke="#111111"></path><path d="M498 -55L569 0L572 0Z" fill="#101010" stroke="#101010"></path><path d="M452 -25L457 -48L400 0Z" fill="#141414" stroke="#141414"></path><path d="M184 264L224 285L246 240Z" fill="#101010" stroke="#101010"></path><path d="M241 318L214 367L268 356Z" fill="#121212" stroke="#121212"></path><path d="M511 540L533 476L466 458Z" fill="#101010" stroke="#101010"></path><path d="M659 -38L498 -55L572 0Z" fill="#101010" stroke="#101010"></path><path d="M761 120L760 147L849 159Z" fill="#111111" stroke="#111111"></path><path d="M761 120L774 92L731 96Z" fill="#111111" stroke="#111111"></path><path d="M814 305L740 306L819 342Z" fill="#101010" stroke="#101010"></path><path d="M849 159L760 147L769 181Z" fill="#101010" stroke="#101010"></path><path d="M466 540L511 540L466 458Z" fill="#111111" stroke="#111111"></path><path d="M350 495L445 436L348 434Z" fill="#121212" stroke="#121212"></path><path d="M315 453L350 495L348 434Z" fill="#121212" stroke="#121212"></path><path d="M458 540L466 540L466 458Z" fill="#121212" stroke="#121212"></path><path d="M721 0L703 0L690 53Z" fill="#121212" stroke="#121212"></path><path d="M654 0L659 -38L572 0Z" fill="#121212" stroke="#121212"></path><path d="M431 529L458 540L466 458Z" fill="#131313" stroke="#131313"></path><path d="M610 540L624 524L614 509Z" fill="#111111" stroke="#111111"></path><path d="M614 509L624 524L637 485Z" fill="#111111" stroke="#111111"></path><path d="M610 540L606 503L558 528Z" fill="#141414" stroke="#141414"></path><path d="M486 572L465 543L458 540Z" fill="#141414" stroke="#141414"></path><path d="M458 540L465 543L466 540Z" fill="#121212" stroke="#121212"></path><path d="M466 540L486 572L511 540Z" fill="#121212" stroke="#121212"></path><path d="M819 342L740 306L751 375Z" fill="#121212" stroke="#121212"></path><path d="M808 292L852 284L800 257Z" fill="#141414" stroke="#141414"></path><path d="M693 526L702 484L637 485Z" fill="#121212" stroke="#121212"></path><path d="M756 395L789 394L751 375Z" fill="#131313" stroke="#131313"></path><path d="M703 0L659 -38L654 0Z" fill="#121212" stroke="#121212"></path><path d="M774 92L721 0L731 96Z" fill="#131313" stroke="#131313"></path><path d="M703 0L757 -41L659 -38Z" fill="#101010" stroke="#101010"></path><path d="M486 572L610 540L558 528Z" fill="#121212" stroke="#121212"></path><path d="M624 524L693 526L637 485Z" fill="#121212" stroke="#121212"></path><path d="M486 572L558 528L511 540Z" fill="#121212" stroke="#121212"></path><path d="M802 422L789 394L756 395Z" fill="#141414" stroke="#141414"></path><path d="M486 572L612 540L610 540Z" fill="#131313" stroke="#131313"></path><path d="M610 540L612 540L624 524Z" fill="#131313" stroke="#131313"></path><path d="M789 394L819 342L751 375Z" fill="#141414" stroke="#141414"></path><path d="M197 322L214 367L241 318Z" fill="#121212" stroke="#121212"></path><path d="M270 396L275 470L315 453Z" fill="#101010" stroke="#101010"></path><path d="M316 540L374 536L350 495Z" fill="#141414" stroke="#141414"></path><path d="M819 342L828 318L814 305Z" fill="#131313" stroke="#131313"></path><path d="M814 305L852 284L808 292Z" fill="#121212" stroke="#121212"></path><path d="M354 0L299 -8L339 34Z" fill="#121212" stroke="#121212"></path><path d="M311 45L263 6L285 93Z" fill="#141414" stroke="#141414"></path><path d="M457 -48L299 -8L354 0Z" fill="#101010" stroke="#101010"></path><path d="M299 -8L290 0L311 45Z" fill="#121212" stroke="#121212"></path><path d="M184 264L197 322L224 285Z" fill="#121212" stroke="#121212"></path><path d="M224 285L197 322L241 318Z" fill="#141414" stroke="#141414"></path><path d="M299 -8L289 0L290 0Z" fill="#111111" stroke="#111111"></path><path d="M290 0L289 0L311 45Z" fill="#141414" stroke="#141414"></path><path d="M275 470L350 495L315 453Z" fill="#121212" stroke="#121212"></path><path d="M350 495L374 536L431 529Z" fill="#121212" stroke="#121212"></path><path d="M359 586L486 572L458 540Z" fill="#121212" stroke="#121212"></path><path d="M849 159L769 181L800 257Z" fill="#141414" stroke="#141414"></path><path d="M774 92L779 -4L721 0Z" fill="#131313" stroke="#131313"></path><path d="M162 187L246 240L272 157Z" fill="#101010" stroke="#101010"></path><path d="M162 187L272 157L157 172Z" fill="#141414" stroke="#141414"></path><path d="M216 416L275 470L270 396Z" fill="#101010" stroke="#101010"></path><path d="M802 422L804 398L789 394Z" fill="#131313" stroke="#131313"></path><path d="M789 394L804 398L819 342Z" fill="#101010" stroke="#101010"></path><path d="M866 314L852 284L828 318Z" fill="#141414" stroke="#141414"></path><path d="M736 540L768 452L702 484Z" fill="#131313" stroke="#131313"></path><path d="M702 484L768 452L715 412Z" fill="#141414" stroke="#141414"></path><path d="M359 586L458 540L431 529Z" fill="#141414" stroke="#141414"></path><path d="M465 543L486 572L466 540Z" fill="#121212" stroke="#121212"></path><path d="M712 540L693 526L612 540Z" fill="#101010" stroke="#101010"></path><path d="M612 540L693 526L624 524Z" fill="#121212" stroke="#121212"></path><path d="M804 398L813 397L819 342Z" fill="#121212" stroke="#121212"></path><path d="M802 422L813 397L804 398Z" fill="#121212" stroke="#121212"></path><path d="M299 -8L263 6L289 0Z" fill="#121212" stroke="#121212"></path><path d="M289 0L263 6L311 45Z" fill="#121212" stroke="#121212"></path><path d="M197 322L195 368L214 367Z" fill="#121212" stroke="#121212"></path><path d="M214 367L216 416L270 396Z" fill="#121212" stroke="#121212"></path><path d="M173 344L195 368L197 322Z" fill="#131313" stroke="#131313"></path><path d="M866 314L828 318L871 356Z" fill="#111111" stroke="#111111"></path><path d="M828 318L852 284L814 305Z" fill="#131313" stroke="#131313"></path><path d="M793 455L802 422L768 452Z" fill="#121212" stroke="#121212"></path><path d="M768 452L802 422L756 395Z" fill="#121212" stroke="#121212"></path><path d="M195 368L200 382L214 367Z" fill="#121212" stroke="#121212"></path><path d="M200 382L216 416L214 367Z" fill="#141414" stroke="#141414"></path><path d="M889 264L849 159L800 257Z" fill="#131313" stroke="#131313"></path><path d="M157 172L272 157L156 158Z" fill="#141414" stroke="#141414"></path><path d="M184 264L173 344L197 322Z" fill="#141414" stroke="#141414"></path><path d="M770 540L793 455L768 452Z" fill="#131313" stroke="#131313"></path><path d="M802 422L802 448L813 397Z" fill="#131313" stroke="#131313"></path><path d="M871 356L828 318L819 342Z" fill="#141414" stroke="#141414"></path><path d="M195 368L148 392L200 382Z" fill="#141414" stroke="#141414"></path><path d="M200 382L148 392L216 416Z" fill="#141414" stroke="#141414"></path><path d="M92 340L173 344L184 264Z" fill="#101010" stroke="#101010"></path><path d="M793 455L802 448L802 422Z" fill="#131313" stroke="#131313"></path><path d="M275 470L316 540L350 495Z" fill="#141414" stroke="#141414"></path><path d="M374 536L359 586L431 529Z" fill="#131313" stroke="#131313"></path><path d="M273 540L316 540L275 470Z" fill="#121212" stroke="#121212"></path><path d="M809 20L779 -4L797 74Z" fill="#111111" stroke="#111111"></path><path d="M797 74L779 -4L774 92Z" fill="#131313" stroke="#131313"></path><path d="M721 0L757 -41L703 0Z" fill="#141414" stroke="#141414"></path><path d="M156 158L272 157L252 113Z" fill="#111111" stroke="#111111"></path><path d="M162 187L130 221L184 264Z" fill="#121212" stroke="#121212"></path><path d="M871 356L819 342L813 397Z" fill="#131313" stroke="#131313"></path><path d="M852 284L889 264L800 257Z" fill="#121212" stroke="#121212"></path><path d="M783 558L712 540L612 540Z" fill="#131313" stroke="#131313"></path><path d="M693 526L725 540L702 484Z" fill="#121212" stroke="#121212"></path><path d="M793 455L825 535L802 448Z" fill="#111111" stroke="#111111"></path><path d="M192 10L156 158L252 113Z" fill="#111111" stroke="#111111"></path><path d="M849 52L809 20L797 74Z" fill="#121212" stroke="#121212"></path><path d="M712 540L725 540L693 526Z" fill="#141414" stroke="#141414"></path><path d="M783 558L725 540L712 540Z" fill="#141414" stroke="#141414"></path><path d="M816 0L757 -41L779 -4Z" fill="#121212" stroke="#121212"></path><path d="M779 -4L757 -41L721 0Z" fill="#121212" stroke="#121212"></path><path d="M659 -38L757 -41L498 -55Z" fill="#141414" stroke="#141414"></path><path d="M783 558L736 540L725 540Z" fill="#121212" stroke="#121212"></path><path d="M725 540L736 540L702 484Z" fill="#141414" stroke="#141414"></path><path d="M960 398L871 356L960 407Z" fill="#121212" stroke="#121212"></path><path d="M866 314L889 264L852 284Z" fill="#131313" stroke="#131313"></path><path d="M931 350L871 356L960 398Z" fill="#131313" stroke="#131313"></path><path d="M923 291L889 264L866 314Z" fill="#101010" stroke="#101010"></path><path d="M849 159L856 67L797 74Z" fill="#121212" stroke="#121212"></path><path d="M299 -8L219 0L263 6Z" fill="#101010" stroke="#101010"></path><path d="M263 6L219 0L252 113Z" fill="#121212" stroke="#121212"></path><path d="M217 0L219 0L115 -53Z" fill="#141414" stroke="#141414"></path><path d="M192 0L217 0L115 -53Z" fill="#141414" stroke="#141414"></path><path d="M219 0L192 10L252 113Z" fill="#141414" stroke="#141414"></path><path d="M316 540L359 586L374 536Z" fill="#121212" stroke="#121212"></path><path d="M124 157L157 172L156 158Z" fill="#101010" stroke="#101010"></path><path d="M117 201L162 187L157 172Z" fill="#121212" stroke="#121212"></path><path d="M117 201L130 221L162 187Z" fill="#101010" stroke="#101010"></path><path d="M886 113L856 67L849 159Z" fill="#131313" stroke="#131313"></path><path d="M809 20L816 0L779 -4Z" fill="#141414" stroke="#141414"></path><path d="M856 67L849 52L797 74Z" fill="#131313" stroke="#131313"></path><path d="M237 521L273 540L275 470Z" fill="#141414" stroke="#141414"></path><path d="M316 540L273 540L359 586Z" fill="#111111" stroke="#111111"></path><path d="M237 521L275 470L216 416Z" fill="#101010" stroke="#101010"></path><path d="M843 0L819 4L809 20Z" fill="#101010" stroke="#101010"></path><path d="M819 4L816 0L809 20Z" fill="#111111" stroke="#111111"></path><path d="M217 0L192 10L219 0Z" fill="#141414" stroke="#141414"></path><path d="M965 195L886 113L849 159Z" fill="#121212" stroke="#121212"></path><path d="M890 0L843 0L849 52Z" fill="#131313" stroke="#131313"></path><path d="M142 446L237 521L216 416Z" fill="#131313" stroke="#131313"></path><path d="M273 540L247 543L359 586Z" fill="#101010" stroke="#101010"></path><path d="M133 391L148 392L173 344Z" fill="#121212" stroke="#121212"></path><path d="M173 344L148 392L195 368Z" fill="#141414" stroke="#141414"></path><path d="M86 57L124 157L156 158Z" fill="#101010" stroke="#101010"></path><path d="M783 558L770 540L736 540Z" fill="#101010" stroke="#101010"></path><path d="M736 540L770 540L768 452Z" fill="#121212" stroke="#121212"></path><path d="M124 157L117 201L157 172Z" fill="#141414" stroke="#141414"></path><path d="M78 240L92 340L184 264Z" fill="#131313" stroke="#131313"></path><path d="M217 0L192 0L192 10Z" fill="#131313" stroke="#131313"></path><path d="M192 10L86 57L156 158Z" fill="#131313" stroke="#131313"></path><path d="M115 -53L219 0L299 -8Z" fill="#101010" stroke="#101010"></path><path d="M241 540L247 543L237 521Z" fill="#131313" stroke="#131313"></path><path d="M237 521L247 543L273 540Z" fill="#101010" stroke="#101010"></path><path d="M106 173L107 221L117 201Z" fill="#131313" stroke="#131313"></path><path d="M117 201L107 221L130 221Z" fill="#101010" stroke="#101010"></path><path d="M195 540L241 540L237 521Z" fill="#101010" stroke="#101010"></path><path d="M849 52L843 0L809 20Z" fill="#141414" stroke="#141414"></path><path d="M819 4L843 0L816 0Z" fill="#101010" stroke="#101010"></path><path d="M816 0L843 0L757 -41Z" fill="#101010" stroke="#101010"></path><path d="M909 43L849 52L856 67Z" fill="#141414" stroke="#141414"></path><path d="M92 340L133 391L173 344Z" fill="#111111" stroke="#111111"></path><path d="M148 392L142 446L216 416Z" fill="#131313" stroke="#131313"></path><path d="M124 157L106 173L117 201Z" fill="#121212" stroke="#121212"></path><path d="M77 164L106 173L124 157Z" fill="#101010" stroke="#101010"></path><path d="M933 328L923 291L866 314Z" fill="#141414" stroke="#141414"></path><path d="M889 264L944 230L849 159Z" fill="#111111" stroke="#111111"></path><path d="M933 328L866 314L871 356Z" fill="#111111" stroke="#111111"></path><path d="M486 572L783 558L612 540Z" fill="#101010" stroke="#101010"></path><path d="M770 540L816 539L793 455Z" fill="#101010" stroke="#101010"></path><path d="M359 586L783 558L486 572Z" fill="#131313" stroke="#131313"></path><path d="M133 391L142 446L148 392Z" fill="#111111" stroke="#111111"></path><path d="M783 558L816 539L770 540Z" fill="#141414" stroke="#141414"></path><path d="M931 350L933 328L871 356Z" fill="#121212" stroke="#121212"></path><path d="M923 291L944 230L889 264Z" fill="#131313" stroke="#131313"></path><path d="M845 540L825 535L816 539Z" fill="#141414" stroke="#141414"></path><path d="M816 539L825 535L793 455Z" fill="#101010" stroke="#101010"></path><path d="M960 271L944 230L923 291Z" fill="#131313" stroke="#131313"></path><path d="M886 113L916 60L856 67Z" fill="#121212" stroke="#121212"></path><path d="M78 240L130 221L107 221Z" fill="#111111" stroke="#111111"></path><path d="M78 240L184 264L130 221Z" fill="#111111" stroke="#111111"></path><path d="M133 391L101 431L142 446Z" fill="#141414" stroke="#141414"></path><path d="M871 356L813 397L960 407Z" fill="#121212" stroke="#121212"></path><path d="M960 323L960 271L923 291Z" fill="#111111" stroke="#111111"></path><path d="M77 164L78 240L107 221Z" fill="#121212" stroke="#121212"></path><path d="M247 543L193 549L359 586Z" fill="#131313" stroke="#131313"></path><path d="M241 540L193 549L247 543Z" fill="#101010" stroke="#101010"></path><path d="M142 446L195 540L237 521Z" fill="#141414" stroke="#141414"></path><path d="M115 -53L143 0L192 0Z" fill="#131313" stroke="#131313"></path><path d="M192 0L143 0L192 10Z" fill="#101010" stroke="#101010"></path><path d="M106 173L77 164L107 221Z" fill="#131313" stroke="#131313"></path><path d="M134 0L143 0L115 -53Z" fill="#131313" stroke="#131313"></path><path d="M930 66L916 60L886 113Z" fill="#141414" stroke="#141414"></path><path d="M86 57L77 164L124 157Z" fill="#131313" stroke="#131313"></path><path d="M916 60L909 43L856 67Z" fill="#131313" stroke="#131313"></path><path d="M166 540L193 549L195 540Z" fill="#131313" stroke="#131313"></path><path d="M195 540L193 549L241 540Z" fill="#121212" stroke="#121212"></path><path d="M909 43L890 0L849 52Z" fill="#121212" stroke="#121212"></path><path d="M843 0L890 0L757 -41Z" fill="#121212" stroke="#121212"></path><path d="M115 -53L299 -8L457 -48Z" fill="#111111" stroke="#111111"></path><path d="M143 0L86 57L192 10Z" fill="#111111" stroke="#111111"></path><path d="M960 323L923 291L933 328Z" fill="#121212" stroke="#121212"></path><path d="M944 230L960 204L849 159Z" fill="#101010" stroke="#101010"></path><path d="M960 271L960 204L944 230Z" fill="#131313" stroke="#131313"></path><path d="M783 558L845 540L816 539Z" fill="#111111" stroke="#111111"></path><path d="M825 535L845 540L802 448Z" fill="#141414" stroke="#141414"></path><path d="M916 60L930 66L909 43Z" fill="#131313" stroke="#131313"></path><path d="M909 43L921 18L890 0Z" fill="#121212" stroke="#121212"></path><path d="M960 119L930 66L886 113Z" fill="#131313" stroke="#131313"></path><path d="M92 340L101 431L133 391Z" fill="#111111" stroke="#111111"></path><path d="M142 446L166 540L195 540Z" fill="#101010" stroke="#101010"></path><path d="M58 426L101 431L92 340Z" fill="#131313" stroke="#131313"></path><path d="M960 271L965 195L960 204Z" fill="#131313" stroke="#131313"></path><path d="M960 204L965 195L849 159Z" fill="#101010" stroke="#101010"></path><path d="M960 354L933 328L931 350Z" fill="#121212" stroke="#121212"></path><path d="M960 354L960 323L933 328Z" fill="#121212" stroke="#121212"></path><path d="M960 271L994 402L965 195Z" fill="#101010" stroke="#101010"></path><path d="M123 512L166 540L142 446Z" fill="#101010" stroke="#101010"></path><path d="M35 288L52 282L22 220Z" fill="#131313" stroke="#131313"></path><path d="M78 240L52 282L92 340Z" fill="#101010" stroke="#101010"></path><path d="M960 398L960 354L931 350Z" fill="#121212" stroke="#121212"></path><path d="M960 323L994 402L960 271Z" fill="#121212" stroke="#121212"></path><path d="M134 0L86 57L143 0Z" fill="#121212" stroke="#121212"></path><path d="M22 220L52 282L78 240Z" fill="#111111" stroke="#111111"></path><path d="M965 195L960 119L886 113Z" fill="#121212" stroke="#121212"></path><path d="M960 0L921 18L930 66Z" fill="#141414" stroke="#141414"></path><path d="M930 66L921 18L909 43Z" fill="#111111" stroke="#111111"></path><path d="M921 18L911 0L890 0Z" fill="#131313" stroke="#131313"></path><path d="M890 0L960 -9L757 -41Z" fill="#111111" stroke="#111111"></path><path d="M52 282L54 329L92 340Z" fill="#121212" stroke="#121212"></path><path d="M960 407L813 397L802 448Z" fill="#101010" stroke="#101010"></path><path d="M960 354L994 402L960 323Z" fill="#131313" stroke="#131313"></path><path d="M67 500L123 512L101 431Z" fill="#111111" stroke="#111111"></path><path d="M101 431L123 512L142 446Z" fill="#121212" stroke="#121212"></path><path d="M960 119L960 76L930 66Z" fill="#101010" stroke="#101010"></path><path d="M921 18L960 0L911 0Z" fill="#121212" stroke="#121212"></path><path d="M965 195L960 76L960 119Z" fill="#131313" stroke="#131313"></path><path d="M123 512L141 540L166 540Z" fill="#121212" stroke="#121212"></path><path d="M166 540L141 540L193 549Z" fill="#141414" stroke="#141414"></path><path d="M193 549L14 540L359 586Z" fill="#111111" stroke="#111111"></path><path d="M960 471L960 407L802 448Z" fill="#121212" stroke="#121212"></path><path d="M960 398L994 402L960 354Z" fill="#121212" stroke="#121212"></path><path d="M52 282L35 288L54 329Z" fill="#121212" stroke="#121212"></path><path d="M30 342L58 426L92 340Z" fill="#111111" stroke="#111111"></path><path d="M22 220L78 240L77 164Z" fill="#111111" stroke="#111111"></path><path d="M35 288L39 333L54 329Z" fill="#141414" stroke="#141414"></path><path d="M0 223L22 220L0 203Z" fill="#121212" stroke="#121212"></path><path d="M0 319L30 342L39 333Z" fill="#131313" stroke="#131313"></path><path d="M30 342L92 340L54 329Z" fill="#111111" stroke="#111111"></path><path d="M123 512L93 540L141 540Z" fill="#111111" stroke="#111111"></path><path d="M134 0L115 -53L86 57Z" fill="#141414" stroke="#141414"></path><path d="M0 203L22 220L77 164Z" fill="#121212" stroke="#121212"></path><path d="M498 -55L115 -53L457 -48Z" fill="#121212" stroke="#121212"></path><path d="M0 319L39 333L35 288Z" fill="#101010" stroke="#101010"></path><path d="M39 333L30 342L54 329Z" fill="#101010" stroke="#101010"></path><path d="M845 540L960 471L802 448Z" fill="#131313" stroke="#131313"></path><path d="M960 407L994 402L960 398Z" fill="#101010" stroke="#101010"></path><path d="M783 558L920 540L845 540Z" fill="#111111" stroke="#111111"></path><path d="M845 540L920 540L960 471Z" fill="#131313" stroke="#131313"></path><path d="M1006 431L960 0L960 76Z" fill="#121212" stroke="#121212"></path><path d="M960 76L960 0L930 66Z" fill="#121212" stroke="#121212"></path><path d="M911 0L960 -9L890 0Z" fill="#131313" stroke="#131313"></path><path d="M1006 431L994 402L960 407Z" fill="#141414" stroke="#141414"></path><path d="M965 195L1006 431L960 76Z" fill="#121212" stroke="#121212"></path><path d="M1006 431L960 -9L960 0Z" fill="#141414" stroke="#141414"></path><path d="M960 0L960 -9L911 0Z" fill="#101010" stroke="#101010"></path><path d="M0 203L77 164L0 140Z" fill="#121212" stroke="#121212"></path><path d="M22 220L0 223L35 288Z" fill="#131313" stroke="#131313"></path><path d="M920 540L960 488L960 471Z" fill="#101010" stroke="#101010"></path><path d="M960 471L1006 431L960 407Z" fill="#121212" stroke="#121212"></path><path d="M0 140L77 164L0 90Z" fill="#141414" stroke="#141414"></path><path d="M13 494L67 500L58 426Z" fill="#131313" stroke="#131313"></path><path d="M58 426L67 500L101 431Z" fill="#141414" stroke="#141414"></path><path d="M24 417L58 426L30 342Z" fill="#101010" stroke="#101010"></path><path d="M67 500L93 540L123 512Z" fill="#131313" stroke="#131313"></path><path d="M141 540L93 540L193 549Z" fill="#111111" stroke="#111111"></path><path d="M-19 313L0 319L35 288Z" fill="#121212" stroke="#121212"></path><path d="M0 364L24 417L30 342Z" fill="#121212" stroke="#121212"></path><path d="M0 90L77 164L86 57Z" fill="#101010" stroke="#101010"></path><path d="M0 319L0 349L30 342Z" fill="#111111" stroke="#111111"></path><path d="M0 349L0 351L30 342Z" fill="#111111" stroke="#111111"></path><path d="M0 351L0 364L30 342Z" fill="#131313" stroke="#131313"></path><path d="M960 488L1006 431L960 471Z" fill="#141414" stroke="#141414"></path><path d="M994 402L1006 431L965 195Z" fill="#131313" stroke="#131313"></path><path d="M960 540L1006 431L960 488Z" fill="#131313" stroke="#131313"></path><path d="M0 349L-6 364L0 351Z" fill="#111111" stroke="#111111"></path><path d="M0 351L-6 364L0 364Z" fill="#111111" stroke="#111111"></path><path d="M0 364L-6 364L24 417Z" fill="#131313" stroke="#131313"></path><path d="M24 417L13 494L58 426Z" fill="#141414" stroke="#141414"></path><path d="M-19 313L-6 364L0 349Z" fill="#101010" stroke="#101010"></path><path d="M-19 313L0 349L0 319Z" fill="#141414" stroke="#141414"></path><path d="M-19 313L35 288L0 223Z" fill="#121212" stroke="#121212"></path><path d="M-19 313L0 223L0 203Z" fill="#121212" stroke="#121212"></path><path d="M0 87L0 90L86 57Z" fill="#121212" stroke="#121212"></path><path d="M0 140L-19 313L0 203Z" fill="#141414" stroke="#141414"></path><path d="M0 57L0 87L86 57Z" fill="#121212" stroke="#121212"></path><path d="M-16 11L-19 313L0 140Z" fill="#111111" stroke="#111111"></path><path d="M-16 11L0 140L0 90Z" fill="#131313" stroke="#131313"></path><path d="M783 558L960 540L920 540Z" fill="#121212" stroke="#121212"></path><path d="M920 540L960 540L960 488Z" fill="#111111" stroke="#111111"></path><path d="M0 0L0 57L86 57Z" fill="#131313" stroke="#131313"></path><path d="M0 87L-16 11L0 90Z" fill="#121212" stroke="#121212"></path><path d="M0 515L13 494L-6 364Z" fill="#121212" stroke="#121212"></path><path d="M-6 364L13 494L24 417Z" fill="#121212" stroke="#121212"></path><path d="M67 500L14 540L93 540Z" fill="#141414" stroke="#141414"></path><path d="M115 -53L0 0L86 57Z" fill="#131313" stroke="#131313"></path><path d="M0 57L-16 11L0 87Z" fill="#111111" stroke="#111111"></path><path d="M0 0L-16 11L0 57Z" fill="#121212" stroke="#121212"></path><path d="M-19 313L0 515L-6 364Z" fill="#141414" stroke="#141414"></path><path d="M13 494L14 540L67 500Z" fill="#111111" stroke="#111111"></path><path d="M0 515L14 540L13 494Z" fill="#111111" stroke="#111111"></path><path d="M93 540L14 540L193 549Z" fill="#121212" stroke="#121212"></path><path d="M-19 313L0 540L0 515Z" fill="#121212" stroke="#121212"></path><path d="M0 515L0 540L14 540Z" fill="#131313" stroke="#131313"></path><path d="M14 540L0 540L359 586Z" fill="#131313" stroke="#131313"></path></g></svg>